<svg xmlns="http://www.w3.org/2000/svg" viewBox="0 0 512 512">
  <defs>
    <linearGradient id="g" x1="0" y1="0" x2="1" y2="1">
      <stop offset="0" stop-color="#2a9168"/>
      <stop offset="1" stop-color="#0f2a20"/>
    </linearGradient>
  </defs>
  <rect width="512" height="512" rx="116" fill="url(#g)"/>
  <circle cx="392" cy="116" r="68" fill="#ffb454" opacity=".9"/>
  <path d="M124 156c37-48 95-72 158-59 40 8 75 31 98 63l-52 36c-15-20-36-34-60-39-39-8-78 7-101 38-34 44-28 108 13 146 42 39 107 36 145-7l47 42c-63 71-172 78-243 15-69-62-78-168-20-240 5-7 10-13 15-19z" fill="#fff"/>
</svg>